<svg width="600" height="600" viewBox="0 0 600 600" fill="none" xmlns="http://www.w3.org/2000/svg">
  <rect width="600" height="600" fill="white"/>
  <path d="M300 150C247.5 150 205 192.5 205 245C205 297.5 247.5 340 300 340C352.5 340 395 297.5 395 245C395 192.5 352.5 150 300 150ZM300 310C264.5 310 235 280.5 235 245C235 209.5 264.5 180 300 180C335.5 180 365 209.5 365 245C365 280.5 335.5 310 300 310Z" fill="#0000FF"/>
  <path d="M450 150H405C400 150 395 145 395 140V125C395 120 400 115 405 115H450C455 115 460 120 460 125V140C460 145 455 150 450 150Z" fill="#0000FF"/>
  <path d="M450 375H150C135 375 125 365 125 350V140C125 125 135 115 150 115H375C380 115 385 120 385 125C385 130 380 135 375 135H150C145 135 145 135 145 140V350C145 350 145 355 150 355H450C455 355 455 350 455 350V185C455 180 460 175 465 175C470 175 475 180 475 185V350C475 365 465 375 450 375Z" fill="#0000FF"/>
  <text x="300" y="430" font-family="Arial" font-size="36" font-weight="bold" text-anchor="middle" fill="#0000FF">My Little Fancam</text>
  <text x="300" y="470" font-family="Arial" font-size="18" text-anchor="middle" fill="#0000FF">子どもたちの素敵な瞬間をみんなで残そう</text>
</svg> 